<svg width="256" height="256" viewBox="0 0 256 256" fill="none" xmlns="http://www.w3.org/2000/svg">
<g clip-path="url(#clip0_9_199)">
<path d="M101.195 109.494L101.195 109.494C98.5003 106.759 98.5003 102.341 101.195 99.6072L101.195 109.494ZM101.195 109.494L113.616 122.098V158.66C113.616 162.497 116.691 165.67 120.56 165.67H122.782C125.068 165.67 127.076 164.563 128.337 162.866C129.598 164.563 131.606 165.67 133.892 165.67H136.114C139.983 165.67 143.057 162.497 143.057 158.66V122.098L155.479 109.494C158.173 106.759 158.173 102.341 155.479 99.6071C152.764 96.8525 148.348 96.8525 145.633 99.6071C145.633 99.6071 145.633 99.6071 145.633 99.6072L140.218 105.102C140.619 103.862 140.835 102.54 140.835 101.168C140.835 94.2189 135.274 88.5228 128.337 88.5228C121.4 88.5228 115.838 94.2189 115.838 101.168M101.195 109.494L115.838 101.168M115.838 101.168C115.838 102.54 116.055 103.862 116.456 105.102M115.838 101.168L116.456 105.102M116.456 105.102L111.041 99.6072C108.326 96.8525 103.909 96.8525 101.195 99.6071L116.456 105.102Z" fill="#4EAF13" stroke="#BEFEC5" stroke-width="5"/>
<circle cx="77.9713" cy="58.6986" r="9.55814" fill="#FFF383" stroke="#E4D125" stroke-width="5"/>
<path d="M101.462 139.213H53.5394L78.4721 76.8809L101.462 139.213Z" fill="#990D0D"/>
<path d="M59.5883 140.019V218.281H127.253L127.656 160.671H97.0892V140.019H59.5883Z" fill="#EB3A3A" stroke="#530909" stroke-width="5" stroke-linejoin="round"/>
<rect x="62.0929" y="215.716" width="66.5999" height="5.12994" fill="#990D0D"/>
<rect x="122.277" y="163.17" width="7.98026" height="52.8" fill="#EB3A3A"/>
<path d="M88.0682 180.766L68.9479 181.168L67.8745 162.45L70.0884 154.333L76.9985 150.173L82.9694 151.917L87.2631 157.553L88.0682 180.766Z" fill="#990D0D"/>
<path d="M68.5559 215.21C68.5559 200.154 68.5559 172.022 68.5559 160.49C68.5559 146.819 87.8498 147.059 87.8498 160.49C87.8498 171.83 87.8498 200.074 87.8498 215.21" stroke="#EB3A3A" stroke-width="3" stroke-linejoin="round"/>
<path d="M114.103 180.577V220.845H128.378V167.908C120.221 167.908 114.103 171.301 114.103 180.577Z" fill="#530909"/>
<path d="M49.6412 150.422L78.3115 73.1721L105.046 144.561" stroke="#530909" stroke-width="5" stroke-linecap="round" stroke-linejoin="round"/>
<path d="M11.8909 216.923C35.3697 216.923 43.2836 193.553 52.2512 181.868H96.0022" stroke="#530909" stroke-width="5"/>
<rect x="112.396" y="152.324" width="12.053" height="9.52442" rx="2" fill="#530909"/>
<rect x="112.396" y="152.324" width="12.053" height="9.52442" rx="2" fill="#530909"/>
<rect x="112.396" y="152.324" width="12.053" height="9.52442" rx="2" fill="#530909"/>
<rect x="94.6361" y="152.324" width="12.053" height="9.52442" rx="2" fill="#530909"/>
<rect x="94.6361" y="152.324" width="12.053" height="9.52442" rx="2" fill="#530909"/>
<rect x="94.6361" y="152.324" width="12.053" height="9.52442" rx="2" fill="#530909"/>
<path d="M114.103 185.762V220.845H96.0022V167.908C106.688 167.908 114.103 169.474 114.103 185.762Z" fill="#E4D125"/>
<path d="M68.4486 191.32H77.9557H87.4628" stroke="#990D0D" stroke-width="5"/>
<path d="M68.4486 200.342H77.9557H87.4628" stroke="#990D0D" stroke-width="5"/>
<path d="M68.4486 209.364H77.9557H87.4628" stroke="#990D0D" stroke-width="5"/>
<path d="M62.1237 137.578L78.3799 114.424L94.6361 137.578V144.713H62.1237V137.578Z" fill="#EB3A3A"/>
<rect x="61.9742" y="179.401" width="34.028" height="5.25638" fill="#990D0D"/>
<mask id="mask0_9_199" style="mask-type:alpha" maskUnits="userSpaceOnUse" x="128" y="-13" width="88" height="256">
<path d="M128.337 -13H212.207V115L215.169 175.776L199.543 178.259L199.778 200.373L212.207 243H128.337V-13Z" fill="#D9D9D9"/>
</mask>
<g mask="url(#mask0_9_199)">
<circle cx="12.0581" cy="12.0581" r="9.55814" transform="matrix(-1 0 0 1 190.772 46.6405)" fill="#FFF383" stroke="#E4D125" stroke-width="5"/>
<path d="M155.223 139.213H203.146L178.213 76.8809L155.223 139.213Z" fill="#990D0D"/>
<path d="M197.097 140.019V218.281H129.432L129.029 160.671H159.596V140.019H197.097Z" fill="#EB3A3A" stroke="#530909" stroke-width="5" stroke-linejoin="round"/>
<rect width="66.5999" height="5.12994" transform="matrix(-1 0 0 1 194.592 215.716)" fill="#990D0D"/>
<rect width="7.98026" height="52.8" transform="matrix(-1 0 0 1 134.408 163.17)" fill="#EB3A3A"/>
<path d="M168.617 180.766L187.737 181.168L188.81 162.45L186.596 154.333L179.686 150.173L173.715 151.917L169.422 157.553L168.617 180.766Z" fill="#990D0D"/>
<path d="M188.129 215.21C188.129 200.154 188.129 172.022 188.129 160.49C188.129 146.819 168.835 147.059 168.835 160.49C168.835 171.83 168.835 200.074 168.835 215.21" stroke="#EB3A3A" stroke-width="3" stroke-linejoin="round"/>
<path d="M142.582 180.577V220.845H128.307V167.908C136.464 167.908 142.582 171.301 142.582 180.577Z" fill="#530909"/>
<path d="M207.044 150.422L178.373 73.1721L151.639 144.561" stroke="#530909" stroke-width="5" stroke-linecap="round" stroke-linejoin="round"/>
<path d="M244.794 216.923C221.315 216.923 213.401 193.553 204.434 181.868H160.683" stroke="#530909" stroke-width="5"/>
<rect width="12.053" height="9.52442" rx="2" transform="matrix(-1 0 0 1 144.289 152.324)" fill="#530909"/>
<rect width="12.053" height="9.52442" rx="2" transform="matrix(-1 0 0 1 144.289 152.324)" fill="#530909"/>
<rect width="12.053" height="9.52442" rx="2" transform="matrix(-1 0 0 1 144.289 152.324)" fill="#530909"/>
<rect width="12.053" height="9.52442" rx="2" transform="matrix(-1 0 0 1 162.049 152.324)" fill="#530909"/>
<rect width="12.053" height="9.52442" rx="2" transform="matrix(-1 0 0 1 162.049 152.324)" fill="#530909"/>
<rect width="12.053" height="9.52442" rx="2" transform="matrix(-1 0 0 1 162.049 152.324)" fill="#530909"/>
<path d="M142.582 185.762V220.845H160.683V167.908C149.997 167.908 142.582 169.474 142.582 185.762Z" fill="#E4D125"/>
<path d="M188.236 191.32H178.729H169.222" stroke="#990D0D" stroke-width="5"/>
<path d="M188.236 200.342H178.729H169.222" stroke="#990D0D" stroke-width="5"/>
<path d="M188.236 209.364H178.729H169.222" stroke="#990D0D" stroke-width="5"/>
<path d="M194.561 137.578L178.305 114.424L162.049 137.578V144.713H194.561V137.578Z" fill="#EB3A3A"/>
<rect width="34.028" height="5.25638" transform="matrix(-1 0 0 1 194.711 179.401)" fill="#990D0D"/>
</g>
<circle cx="223.501" cy="168.062" r="7.62503" fill="#530909"/>
<path d="M199.286 182.151H223.501" stroke="#530909" stroke-width="5"/>
<path d="M223.613 168.268V220.308" stroke="#530909" stroke-width="5"/>
</g>
<defs>
<clipPath id="clip0_9_199">
<rect width="256" height="256" fill="white"/>
</clipPath>
</defs>
</svg>
