<svg width="64" height="64" viewBox="0 0 64 64" fill="none" xmlns="http://www.w3.org/2000/svg">
<mask id="path-1-outside-1_99_21" maskUnits="userSpaceOnUse" x="6.83752" y="3.22568" width="51" height="59" fill="black">
<rect fill="white" x="6.83752" y="3.22568" width="51" height="59"/>
<path fill-rule="evenodd" clip-rule="evenodd" d="M33.7609 18.6449C36.9142 18.6449 39.4705 16.0886 39.4705 12.9353C39.4705 9.78195 36.9142 7.22568 33.7609 7.22568C30.6075 7.22568 28.0513 9.78195 28.0513 12.9353C28.0513 16.0886 30.6075 18.6449 33.7609 18.6449ZM27.8958 20.0999C27.5676 19.7984 27.3663 19.6134 26.5973 19.6134L25.7414 19.7865L20.2214 21.0985C18.9041 21.4126 17.6771 22.0265 16.6359 22.8923C15.5946 23.7582 14.7673 24.8526 14.2182 26.0905L12.631 29.6681L11.223 32.6313C10.7685 33.5903 10.7136 34.6906 11.0704 35.6901C11.4272 36.6896 12.1664 37.5064 13.1254 37.9609C14.0844 38.4154 15.1847 38.4703 16.1842 38.1135C16.6791 37.9369 17.1344 37.6645 17.524 37.3119C17.9136 36.9593 18.23 36.5334 18.455 36.0585L19.879 33.0505L19.9206 32.9609L21.5302 29.3385C21.5802 29.2257 21.6556 29.126 21.7505 29.0472C21.8455 28.9683 21.9573 28.9125 22.0774 28.8841L22.4614 28.7913C22.7508 28.7219 23.0537 28.7345 23.3363 28.8278C23.6188 28.9211 23.8698 29.0913 24.0609 29.3194C24.2521 29.5474 24.3758 29.8242 24.4183 30.1187C24.4608 30.4132 24.4203 30.7138 24.3014 30.9865L15.1718 51.9497C14.9439 52.4339 14.8154 52.9588 14.794 53.4935C14.7726 54.0282 14.8587 54.5617 15.0472 55.0625C15.2357 55.5633 15.5228 56.0212 15.8914 56.4091C16.2601 56.7969 16.7028 57.1069 17.1933 57.3206C17.6839 57.5343 18.2124 57.6474 18.7475 57.6532C19.2825 57.659 19.8133 57.5574 20.3084 57.3544C20.8035 57.1514 21.2529 56.8511 21.6298 56.4713C22.0068 56.0915 22.3037 55.6399 22.503 55.1433L28.007 42.5129C28.1225 42.2495 28.3069 42.0221 28.5407 41.8546C28.7745 41.6871 29.0492 41.5858 29.3357 41.5612C29.6223 41.5366 29.9102 41.5898 30.1691 41.715C30.428 41.8403 30.6484 42.033 30.807 42.2729L33.1238 45.7769C33.2685 45.9974 33.3564 46.2502 33.3798 46.5129L34.0518 53.9081C34.0993 54.4313 34.2494 54.94 34.4935 55.4052C34.7375 55.8704 35.0709 56.283 35.4744 56.6193C35.8779 56.9557 36.3437 57.2093 36.8453 57.3656C37.3468 57.522 37.8742 57.578 38.3974 57.5305C38.9206 57.483 39.4293 57.333 39.8945 57.0889C40.3597 56.8448 40.7722 56.5115 41.1086 56.1079C41.445 55.7044 41.6986 55.2386 41.8549 54.7371C42.0113 54.2355 42.0673 53.7081 42.0198 53.1849L41.2934 45.1849C41.1846 44.0009 40.7846 42.8617 40.1286 41.8697L36.759 36.7689C36.6247 36.5667 36.5383 36.3365 36.5061 36.0959C36.4739 35.8553 36.497 35.6105 36.5734 35.3801L37.0534 33.9497C37.1433 33.6794 37.3037 33.438 37.5182 33.2504C37.7326 33.0628 37.9932 32.9359 38.273 32.8827C38.5529 32.8295 38.8419 32.852 39.1102 32.9479C39.3785 33.0438 39.6162 33.2096 39.799 33.4281L41.3702 35.3097C41.848 35.8826 42.4765 36.3104 43.1846 36.5449L47.9846 38.1321C48.9848 38.4403 50.066 38.3442 50.9961 37.8644C51.9263 37.3846 52.6314 36.5594 52.9601 35.5657C53.2888 34.5721 53.2149 33.4892 52.7544 32.5493C52.2939 31.6095 51.4833 30.8876 50.4966 30.5385L47.2134 29.4505C46.9301 29.3572 46.6785 29.1865 46.487 28.9577L42.455 24.1321C41.4534 22.9257 40.6046 22.2473 39.1102 21.8889C38.5758 21.7609 37.5046 21.7193 36.9766 21.8889C35.5247 22.3554 34.2652 22.5476 32.7604 22.2994C31.2557 22.0512 29.549 21.3698 28.3238 20.4617C28.1445 20.3285 28.0122 20.2069 27.8958 20.0999Z"/>
</mask>
<path fill-rule="evenodd" clip-rule="evenodd" d="M33.7609 18.6449C36.9142 18.6449 39.4705 16.0886 39.4705 12.9353C39.4705 9.78195 36.9142 7.22568 33.7609 7.22568C30.6075 7.22568 28.0513 9.78195 28.0513 12.9353C28.0513 16.0886 30.6075 18.6449 33.7609 18.6449ZM27.8958 20.0999C27.5676 19.7984 27.3663 19.6134 26.5973 19.6134L25.7414 19.7865L20.2214 21.0985C18.9041 21.4126 17.6771 22.0265 16.6359 22.8923C15.5946 23.7582 14.7673 24.8526 14.2182 26.0905L12.631 29.6681L11.223 32.6313C10.7685 33.5903 10.7136 34.6906 11.0704 35.6901C11.4272 36.6896 12.1664 37.5064 13.1254 37.9609C14.0844 38.4154 15.1847 38.4703 16.1842 38.1135C16.6791 37.9369 17.1344 37.6645 17.524 37.3119C17.9136 36.9593 18.23 36.5334 18.455 36.0585L19.879 33.0505L19.9206 32.9609L21.5302 29.3385C21.5802 29.2257 21.6556 29.126 21.7505 29.0472C21.8455 28.9683 21.9573 28.9125 22.0774 28.8841L22.4614 28.7913C22.7508 28.7219 23.0537 28.7345 23.3363 28.8278C23.6188 28.9211 23.8698 29.0913 24.0609 29.3194C24.2521 29.5474 24.3758 29.8242 24.4183 30.1187C24.4608 30.4132 24.4203 30.7138 24.3014 30.9865L15.1718 51.9497C14.9439 52.4339 14.8154 52.9588 14.794 53.4935C14.7726 54.0282 14.8587 54.5617 15.0472 55.0625C15.2357 55.5633 15.5228 56.0212 15.8914 56.4091C16.2601 56.7969 16.7028 57.1069 17.1933 57.3206C17.6839 57.5343 18.2124 57.6474 18.7475 57.6532C19.2825 57.659 19.8133 57.5574 20.3084 57.3544C20.8035 57.1514 21.2529 56.8511 21.6298 56.4713C22.0068 56.0915 22.3037 55.6399 22.503 55.1433L28.007 42.5129C28.1225 42.2495 28.3069 42.0221 28.5407 41.8546C28.7745 41.6871 29.0492 41.5858 29.3357 41.5612C29.6223 41.5366 29.9102 41.5898 30.1691 41.715C30.428 41.8403 30.6484 42.033 30.807 42.2729L33.1238 45.7769C33.2685 45.9974 33.3564 46.2502 33.3798 46.5129L34.0518 53.9081C34.0993 54.4313 34.2494 54.94 34.4935 55.4052C34.7375 55.8704 35.0709 56.283 35.4744 56.6193C35.8779 56.9557 36.3437 57.2093 36.8453 57.3656C37.3468 57.522 37.8742 57.578 38.3974 57.5305C38.9206 57.483 39.4293 57.333 39.8945 57.0889C40.3597 56.8448 40.7722 56.5115 41.1086 56.1079C41.445 55.7044 41.6986 55.2386 41.8549 54.7371C42.0113 54.2355 42.0673 53.7081 42.0198 53.1849L41.2934 45.1849C41.1846 44.0009 40.7846 42.8617 40.1286 41.8697L36.759 36.7689C36.6247 36.5667 36.5383 36.3365 36.5061 36.0959C36.4739 35.8553 36.497 35.6105 36.5734 35.3801L37.0534 33.9497C37.1433 33.6794 37.3037 33.438 37.5182 33.2504C37.7326 33.0628 37.9932 32.9359 38.273 32.8827C38.5529 32.8295 38.8419 32.852 39.1102 32.9479C39.3785 33.0438 39.6162 33.2096 39.799 33.4281L41.3702 35.3097C41.848 35.8826 42.4765 36.3104 43.1846 36.5449L47.9846 38.1321C48.9848 38.4403 50.066 38.3442 50.9961 37.8644C51.9263 37.3846 52.6314 36.5594 52.9601 35.5657C53.2888 34.5721 53.2149 33.4892 52.7544 32.5493C52.2939 31.6095 51.4833 30.8876 50.4966 30.5385L47.2134 29.4505C46.9301 29.3572 46.6785 29.1865 46.487 28.9577L42.455 24.1321C41.4534 22.9257 40.6046 22.2473 39.1102 21.8889C38.5758 21.7609 37.5046 21.7193 36.9766 21.8889C35.5247 22.3554 34.2652 22.5476 32.7604 22.2994C31.2557 22.0512 29.549 21.3698 28.3238 20.4617C28.1445 20.3285 28.0122 20.2069 27.8958 20.0999Z" fill="#4EAF13"/>
<path d="M26.5973 19.6134V15.6134H26.197L25.8045 15.6928L26.5973 19.6134ZM27.8958 20.0999L30.6021 17.1545L30.6021 17.1545L27.8958 20.0999ZM25.7414 19.7865L24.9486 15.8659L24.8823 15.8793L24.8165 15.8949L25.7414 19.7865ZM20.2214 21.0985L19.2965 17.2069L19.2937 17.2076L20.2214 21.0985ZM14.2182 26.0905L17.8745 27.7126L17.8747 27.7124L14.2182 26.0905ZM12.631 29.6681L16.2439 31.3848L16.2662 31.3378L16.2873 31.2902L12.631 29.6681ZM11.223 32.6313L7.61013 30.9146L7.60835 30.9184L11.223 32.6313ZM11.0704 35.6901L14.8376 34.3454L11.0704 35.6901ZM16.1842 38.1135L17.5289 41.8807L17.5289 41.8807L16.1842 38.1135ZM18.455 36.0585L22.0697 37.7715L22.0704 37.77L18.455 36.0585ZM19.879 33.0505L23.4944 34.762L23.5007 34.7485L23.507 34.735L19.879 33.0505ZM19.9206 32.9609L23.5486 34.6454L23.5626 34.6154L23.576 34.5852L19.9206 32.9609ZM21.5302 29.3385L25.1856 30.9628L25.1872 30.959L21.5302 29.3385ZM22.0774 28.8841L22.9985 32.7766L23.0078 32.7744L23.017 32.7722L22.0774 28.8841ZM22.4614 28.7913L21.5282 24.9017L21.5218 24.9032L22.4614 28.7913ZM24.3014 30.9865L20.6346 29.3881L20.6341 29.3894L24.3014 30.9865ZM15.1718 51.9497L18.7908 53.6535L18.8158 53.6005L18.8391 53.5469L15.1718 51.9497ZM15.0472 55.0625L11.3036 56.4715L11.3036 56.4715L15.0472 55.0625ZM17.1933 57.3206L15.5959 60.9878L15.5959 60.9878L17.1933 57.3206ZM18.7475 57.6532L18.7908 53.6535L18.7475 57.6532ZM21.6298 56.4713L18.7908 53.6535L18.7908 53.6535L21.6298 56.4713ZM22.503 55.1433L18.8361 53.5454L18.8127 53.5991L18.7908 53.6535L22.503 55.1433ZM28.007 42.5129L24.3436 40.9068L24.3401 40.915L28.007 42.5129ZM28.5407 41.8546L30.8699 45.1065L30.8699 45.1065L28.5407 41.8546ZM29.3357 41.5612L28.9941 37.5758L28.9941 37.5758L29.3357 41.5612ZM30.1691 41.715L28.4272 45.3159L28.4273 45.3159L30.1691 41.715ZM30.807 42.2729L27.4704 44.479L27.4704 44.479L30.807 42.2729ZM33.1238 45.7769L36.4681 43.5824L36.4604 43.5708L33.1238 45.7769ZM33.3798 46.5129L29.3955 46.8675L29.3962 46.8749L33.3798 46.5129ZM34.0518 53.9081L38.0354 53.5466L38.0354 53.5461L34.0518 53.9081ZM42.0198 53.1849L46.0034 52.8234L46.0034 52.8232L42.0198 53.1849ZM41.2934 45.1849L45.277 44.8232L45.2766 44.8189L41.2934 45.1849ZM40.1286 41.8697L36.7911 44.0745L36.7922 44.0761L40.1286 41.8697ZM36.759 36.7689L40.0965 34.5641L40.0915 34.5565L36.759 36.7689ZM36.5734 35.3801L32.7812 34.1076L32.7769 34.1205L36.5734 35.3801ZM37.0534 33.9497L40.8456 35.2223L40.8491 35.2119L37.0534 33.9497ZM38.273 32.8827L37.5265 28.953L37.5265 28.953L38.273 32.8827ZM39.799 33.4281L42.8693 30.8643L42.8674 30.862L39.799 33.4281ZM41.3702 35.3097L44.442 32.7477L44.4405 32.7459L41.3702 35.3097ZM43.1846 36.5449L41.9272 40.3421L41.9288 40.3427L43.1846 36.5449ZM47.9846 38.1321L46.7288 41.9299L46.7677 41.9427L46.8067 41.9548L47.9846 38.1321ZM50.4966 30.5385L51.8307 26.7676L51.7929 26.7542L51.7549 26.7416L50.4966 30.5385ZM47.2134 29.4505L48.4717 25.6536L48.4649 25.6513L47.2134 29.4505ZM46.487 28.9577L43.4175 31.5225L43.4195 31.5249L46.487 28.9577ZM42.455 24.1321L39.3774 26.6872L39.3855 26.6969L42.455 24.1321ZM39.1102 21.8889L40.0431 17.9992L40.0419 17.9989L39.1102 21.8889ZM36.9766 21.8889L35.7533 18.0806L35.753 18.0807L36.9766 21.8889ZM28.3238 20.4617L25.9382 23.6725L25.942 23.6753L28.3238 20.4617ZM35.4705 12.9353C35.4705 13.8795 34.705 14.6449 33.7609 14.6449V22.6449C39.1233 22.6449 43.4705 18.2977 43.4705 12.9353H35.4705ZM33.7609 11.2257C34.705 11.2257 35.4705 11.9911 35.4705 12.9353H43.4705C43.4705 7.57281 39.1233 3.22568 33.7609 3.22568V11.2257ZM32.0513 12.9353C32.0513 11.9911 32.8167 11.2257 33.7609 11.2257V3.22568C28.3984 3.22568 24.0513 7.57281 24.0513 12.9353H32.0513ZM33.7609 14.6449C32.8167 14.6449 32.0513 13.8795 32.0513 12.9353H24.0513C24.0513 18.2977 28.3984 22.6449 33.7609 22.6449V14.6449ZM26.5973 23.6134C26.6903 23.6134 26.3047 23.6306 25.7773 23.3944C25.2809 23.1721 24.9602 22.8348 25.1894 23.0454L30.6021 17.1545C30.5032 17.0636 29.9177 16.483 29.0464 16.0928C28.144 15.6888 27.2733 15.6134 26.5973 15.6134V23.6134ZM26.5342 23.7072L27.3902 23.5341L25.8045 15.6928L24.9486 15.8659L26.5342 23.7072ZM21.1464 24.9901L26.6664 23.6781L24.8165 15.8949L19.2965 17.2069L21.1464 24.9901ZM19.1934 25.9679C19.7613 25.4956 20.4306 25.1608 21.1491 24.9894L19.2937 17.2076C17.3776 17.6644 15.5929 18.5573 14.0784 19.8167L19.1934 25.9679ZM17.8747 27.7124C18.1742 27.0371 18.6254 26.4402 19.1934 25.9679L14.0784 19.8167C12.5638 21.0761 11.3604 22.6681 10.5618 24.4687L17.8747 27.7124ZM16.2873 31.2902L17.8745 27.7126L10.5619 24.4684L8.97469 28.046L16.2873 31.2902ZM14.8359 34.348L16.2439 31.3848L9.01813 27.9514L7.61013 30.9146L14.8359 34.348ZM14.8376 34.3454C14.8375 34.345 14.8375 34.3446 14.8377 34.3443L7.60835 30.9184C6.69957 32.836 6.58981 35.0362 7.30322 37.0348L14.8376 34.3454ZM14.8384 34.3463C14.838 34.3461 14.8377 34.3458 14.8376 34.3454L7.30322 37.0348C8.01662 39.0334 9.49476 40.6668 11.4124 41.5756L14.8384 34.3463ZM14.8395 34.3463C14.8391 34.3464 14.8387 34.3464 14.8384 34.3463L11.4124 41.5756C13.3301 42.4844 15.5303 42.5941 17.5289 41.8807L14.8395 34.3463ZM14.84 34.346L14.8395 34.3463L17.5289 41.8807C18.5185 41.5275 19.4289 40.9828 20.208 40.2777L14.84 34.346ZM14.8404 34.3456L14.84 34.346L20.208 40.2777C20.9871 39.5726 21.6197 38.721 22.0697 37.7715L14.8404 34.3456ZM16.2637 31.339L14.8397 34.347L22.0704 37.77L23.4944 34.762L16.2637 31.339ZM16.2926 31.2765L16.251 31.3661L23.507 34.735L23.5486 34.6454L16.2926 31.2765ZM17.8748 27.7143L16.2652 31.3367L23.576 34.5852L25.1856 30.9628L17.8748 27.7143ZM19.1951 25.9699C18.6255 26.4428 18.1731 27.0412 17.8732 27.718L25.1872 30.959C24.9873 31.4102 24.6857 31.8091 24.306 32.1245L19.1951 25.9699ZM21.1564 24.9916C20.436 25.1621 19.7647 25.4969 19.1951 25.9699L24.306 32.1245C23.9262 32.4398 23.4787 32.663 22.9985 32.7766L21.1564 24.9916ZM21.5218 24.9032L21.1378 24.9961L23.017 32.7722L23.401 32.6794L21.5218 24.9032ZM24.5902 25.0294C23.6013 24.703 22.5409 24.6587 21.5282 24.9017L23.3946 32.6809C22.9606 32.7851 22.5062 32.7661 22.0823 32.6262L24.5902 25.0294ZM27.1265 26.7498C26.4575 25.9517 25.5792 25.3559 24.5902 25.0294L22.0823 32.6262C21.6585 32.4863 21.2821 32.2309 20.9954 31.8889L27.1265 26.7498ZM28.3773 29.5476C28.2287 28.5169 27.7955 27.548 27.1265 26.7498L20.9954 31.8889C20.7087 31.5468 20.523 31.1316 20.4593 30.6898L28.3773 29.5476ZM27.9682 32.5849C28.3843 31.6302 28.526 30.5784 28.3773 29.5476L20.4593 30.6898C20.3956 30.248 20.4563 29.7973 20.6346 29.3881L27.9682 32.5849ZM18.8391 53.5469L27.9687 32.5837L20.6341 29.3894L11.5045 50.3526L18.8391 53.5469ZM18.7908 53.6535L18.7908 53.6535L11.5528 50.246C11.097 51.2143 10.84 52.2642 10.7972 53.3335L18.7908 53.6535ZM18.7908 53.6535L18.7908 53.6535L10.7972 53.3335C10.7544 54.4029 10.9266 55.4699 11.3036 56.4715L18.7908 53.6535ZM18.7908 53.6534L18.7908 53.6535L11.3036 56.4715C11.6806 57.4732 12.2547 58.3889 12.992 59.1647L18.7908 53.6534ZM18.7908 53.6535L18.7908 53.6534L12.992 59.1647C13.7293 59.9404 14.6147 60.5604 15.5959 60.9878L18.7908 53.6535ZM18.7908 53.6535L18.7908 53.6535L15.5959 60.9878C16.577 61.4152 17.6339 61.6414 18.7041 61.653L18.7908 53.6535ZM18.7908 53.6535L18.7908 53.6535L18.7041 61.653C19.7743 61.6646 20.8359 61.4614 21.8261 61.0553L18.7908 53.6535ZM18.7908 53.6535L18.7908 53.6535L21.8261 61.0553C22.8163 60.6493 23.7149 60.0487 24.4688 59.2891L18.7908 53.6535ZM18.7908 53.6535L18.7908 53.6535L24.4688 59.2891C25.2227 58.5295 25.8166 57.6264 26.2152 56.6332L18.7908 53.6535ZM24.3401 40.915L18.8361 53.5454L26.17 56.7413L31.674 44.1109L24.3401 40.915ZM26.2115 38.6027C25.3931 39.1889 24.7478 39.9848 24.3436 40.9068L31.6704 44.1191C31.4972 44.5142 31.2206 44.8553 30.8699 45.1065L26.2115 38.6027ZM28.9941 37.5758C27.9911 37.6618 27.0299 38.0165 26.2114 38.6027L30.8699 45.1065C30.5192 45.3577 30.1072 45.5097 29.6774 45.5466L28.9941 37.5758ZM31.911 38.1142C31.0047 37.6758 29.9971 37.4899 28.9941 37.5758L29.6773 45.5466C29.2475 45.5834 28.8156 45.5037 28.4272 45.3159L31.911 38.1142ZM34.1436 40.0668C33.5884 39.2271 32.8171 38.5525 31.9109 38.1142L28.4273 45.3159C28.0389 45.128 27.7083 44.8389 27.4704 44.479L34.1436 40.0668ZM36.4604 43.5708L34.1436 40.0668L27.4704 44.479L29.7872 47.983L36.4604 43.5708ZM37.3641 46.1584C37.2823 45.239 36.9745 44.3541 36.4681 43.5824L29.7795 47.9714C29.5625 47.6407 29.4306 47.2615 29.3956 46.8675L37.3641 46.1584ZM38.0354 53.5461L37.3634 46.1509L29.3962 46.8749L30.0682 54.2701L38.0354 53.5461ZM38.0355 53.5467L38.0354 53.5466L30.0682 54.2697C30.1632 55.316 30.4633 56.3334 30.9514 57.2637L38.0355 53.5467ZM38.0356 53.5468L38.0355 53.5467L30.9514 57.2637C31.4396 58.1941 32.1062 59.0191 32.9132 59.6918L38.0356 53.5468ZM38.0357 53.5469L38.0356 53.5468L32.9132 59.6918C33.7202 60.3646 34.6518 60.8717 35.6549 61.1844L38.0357 53.5469ZM38.0359 53.5469L38.0357 53.5469L35.6549 61.1844C36.6579 61.4971 37.7126 61.6091 38.759 61.5141L38.0359 53.5469ZM38.036 53.5469L38.0359 53.5469L38.759 61.5141C39.8053 61.4192 40.8227 61.119 41.753 60.6309L38.036 53.5469ZM38.0361 53.5468L38.036 53.5469L41.753 60.6309C42.6833 60.1427 43.5084 59.4761 44.1811 58.6691L38.0361 53.5468ZM38.0362 53.5466L38.0361 53.5468L44.1811 58.6691C44.8538 57.8621 45.361 56.9305 45.6737 55.9275L38.0362 53.5466ZM38.0362 53.5465L38.0362 53.5466L45.6737 55.9275C45.9864 54.9245 46.0984 53.8697 46.0034 52.8234L38.0362 53.5465ZM37.3098 45.5466L38.0362 53.5466L46.0034 52.8232L45.277 44.8232L37.3098 45.5466ZM36.7922 44.0761C37.0836 44.5168 37.2617 45.0237 37.3102 45.5509L45.2766 44.8189C45.1075 42.9782 44.4856 41.2066 43.4651 39.6633L36.7922 44.0761ZM33.4215 38.9737L36.7911 44.0745L43.4661 39.665L40.0965 34.5642L33.4215 38.9737ZM32.5414 36.6258C32.6539 37.4679 32.9566 38.2734 33.4265 38.9813L40.0915 34.5565C40.2929 34.8599 40.4226 35.2051 40.4709 35.5661L32.5414 36.6258ZM32.7769 34.1205C32.5094 34.9269 32.4288 35.7836 32.5414 36.6258L40.4709 35.5661C40.5191 35.927 40.4846 36.2942 40.3699 36.6398L32.7769 34.1205ZM33.2612 32.6772L32.7812 34.1076L40.3656 36.6527L40.8456 35.2223L33.2612 32.6772ZM34.8844 30.2399C34.1339 30.8964 33.5724 31.7414 33.2578 32.6875L40.8491 35.2119C40.7142 35.6173 40.4736 35.9795 40.1519 36.2609L34.8844 30.2399ZM37.5265 28.953C36.5469 29.1391 35.6348 29.5833 34.8844 30.2399L40.1519 36.2609C39.8303 36.5423 39.4394 36.7327 39.0196 36.8124L37.5265 28.953ZM40.4565 29.1813C39.5176 28.8457 38.5061 28.7669 37.5265 28.953L39.0196 36.8124C38.5998 36.8922 38.1663 36.8584 37.7639 36.7146L40.4565 29.1813ZM42.8674 30.862C42.2277 30.0971 41.3954 29.5169 40.4565 29.1813L37.7639 36.7146C37.3615 36.5707 37.0048 36.3221 36.7307 35.9943L42.8674 30.862ZM44.4405 32.7459L42.8693 30.8643L36.7287 35.9919L38.2999 37.8735L44.4405 32.7459ZM44.442 32.7477L44.442 32.7477L38.2984 37.8717C39.254 39.0175 40.5109 39.8732 41.9272 40.3421L44.442 32.7477ZM49.2404 34.3344L44.4404 32.7472L41.9288 40.3427L46.7288 41.9299L49.2404 34.3344ZM49.1625 34.3095L49.1625 34.3095L46.8067 41.9548C48.8072 42.5711 50.9695 42.3789 52.8298 41.4194L49.1625 34.3095ZM49.1625 34.3095L49.1625 34.3095L52.8298 41.4194C54.6901 40.4598 56.1003 38.8093 56.7577 36.822L49.1625 34.3095ZM49.1625 34.3095L49.1625 34.3095L56.7577 36.822C57.4151 34.8347 57.2674 32.6689 56.3463 30.7892L49.1625 34.3095ZM49.1625 34.3095L49.1625 34.3095L56.3463 30.7892C55.4252 28.9095 53.8041 27.4657 51.8307 26.7676L49.1625 34.3095ZM45.9552 33.2475L49.2384 34.3355L51.7549 26.7416L48.4717 25.6536L45.9552 33.2475ZM43.4195 31.5249C44.0896 32.3256 44.9702 32.923 45.9619 33.2497L48.4649 25.6513C48.89 25.7914 49.2674 26.0474 49.5545 26.3905L43.4195 31.5249ZM39.3855 26.6969L43.4175 31.5225L49.5566 26.393L45.5246 21.5674L39.3855 26.6969ZM38.1773 25.7786C38.5024 25.8566 38.6161 25.9294 38.6809 25.9746C38.7853 26.0473 38.9835 26.2127 39.3774 26.6872L45.5326 21.577C44.1796 19.9474 42.639 18.6218 40.0431 17.9992L38.1773 25.7786ZM38.1999 25.6973C38.1291 25.72 38.0699 25.7358 38.0257 25.7466C37.981 25.7574 37.9453 25.7646 37.9201 25.7692C37.8948 25.7739 37.8762 25.7767 37.8653 25.7781C37.8542 25.7797 37.8483 25.7802 37.848 25.7803C37.8476 25.7803 37.8511 25.78 37.8586 25.7795C37.866 25.779 37.8763 25.7784 37.8895 25.7779C37.9163 25.777 37.95 25.7765 37.9891 25.777C38.028 25.7775 38.0681 25.7789 38.1073 25.7812C38.1467 25.7835 38.1812 25.7864 38.209 25.7893C38.2227 25.7907 38.2336 25.7921 38.2416 25.7931C38.2455 25.7936 38.2486 25.794 38.2507 25.7944C38.2528 25.7947 38.2538 25.7948 38.2537 25.7948C38.2537 25.7948 38.2523 25.7946 38.2496 25.7941C38.2469 25.7936 38.2426 25.7928 38.2368 25.7917C38.2258 25.7896 38.206 25.7855 38.1785 25.7789L40.0419 17.9989C39.3927 17.8434 38.6749 17.7852 38.0929 17.7777C37.5792 17.771 36.6511 17.7922 35.7533 18.0806L38.1999 25.6973ZM32.1095 26.2461C34.4212 26.6274 36.3448 26.2933 38.2002 25.6972L35.753 18.0807C34.7045 18.4175 34.1092 18.4678 33.4114 18.3527L32.1095 26.2461ZM25.942 23.6753C27.7272 24.9984 30.0414 25.905 32.1095 26.2461L33.4114 18.3527C32.47 18.1975 31.3709 17.7412 30.7056 17.2481L25.942 23.6753ZM25.1894 23.0454C25.3106 23.1567 25.5764 23.4036 25.9382 23.6725L30.7094 17.2509C30.7094 17.2509 30.7094 17.251 30.7094 17.2509C30.7094 17.2509 30.7091 17.2507 30.7086 17.2503C30.7077 17.2496 30.7048 17.2472 30.6988 17.2421C30.6828 17.2283 30.6641 17.2114 30.6021 17.1545L25.1894 23.0454Z" fill="#BEFEC5" mask="url(#path-1-outside-1_99_21)"/>
</svg>
