<svg width="205" height="271" viewBox="0 0 205 271" fill="none" xmlns="http://www.w3.org/2000/svg" color="#e97c1e">
<g clip-path="url(#clip0_44_21)">
<mask id="mask0_44_21" style="mask-type:alpha" maskUnits="userSpaceOnUse" x="18" y="1" width="168" height="215">
<path fill-rule="evenodd" clip-rule="evenodd" d="M126.86 164.182C160.892 153.696 185.624 121.999 185.624 84.5259C185.624 38.4991 148.312 1.187 102.285 1.187C56.2587 1.187 18.9466 38.4991 18.9466 84.5259C18.9466 121.999 43.6792 153.696 77.7112 164.182V215.731H126.86V164.182Z" fill="white"/>
</mask>
<g mask="url(#mask0_44_21)">
<rect x="-50.5585" y="-18.6979" width="290.986" height="291.594" fill="white"/>
<path d="M114.58 200.904C114.85 204.956 118.173 208.561 120.723 211.451L127.33 215.856C132.405 215.856 136.748 214.666 141.229 211.989C143.314 210.744 145.461 209.601 147.396 208.123C148.861 207.004 149.657 205.457 150.92 204.159C152.366 202.672 154.2 201.902 156.034 201.051C163.905 197.396 171.253 192.41 178.817 188.179C185.424 184.483 192.127 181.05 198.565 177.045C201.273 175.36 204.277 173.641 206.273 171.074C209.785 166.559 212.732 161.284 215.572 156.342C220.438 147.876 225.902 138.817 228.787 129.424C231.391 120.944 231.798 110.907 231.332 102.114C230.781 91.714 228.084 81.0693 223.721 71.6232C220.813 65.3251 217.073 59.3534 213.125 53.6614C210.67 50.1213 208.037 46.4248 204.536 43.8241C197.563 38.6441 188.116 36.9997 179.869 35.0879C175.836 34.153 171.732 33.0604 167.609 32.5674C166.545 32.4402 165.401 32.3876 164.403 32.8365C163.369 33.3018 163.146 34.3788 162.911 35.406C161.415 41.9281 161.537 49.9762 163.204 56.5001C164.234 60.5272 165.651 64.7492 165.651 68.9559V80.3839C165.651 83.8669 166.532 87.3114 166.532 90.7596C166.532 96.9823 160.157 100.883 157.992 106.176C156.726 109.271 160.235 113.797 160.537 116.993C160.854 120.35 160.06 126.013 157.674 128.616C154.242 132.361 148.348 132.875 143.946 134.832C141.296 136.01 139.417 138.518 137.901 140.876C136.865 142.488 135.584 144.825 133.643 145.379C130.095 146.393 126.315 145.26 122.754 146.064L122.739 146.068C120.201 146.641 114.467 147.935 113.039 150.273C111.801 152.298 110.869 156.006 111.13 158.349C111.521 161.87 112.842 165.596 115.339 168.186C116.3 169.183 116.731 169.824 115.412 170.731C112.405 172.799 114.659 175.763 114.556 178.758C114.438 182.164 114.869 185.075 115.437 188.546C115.848 191.063 116.176 192.795 114.801 194.958C114.01 196.199 114.484 199.454 114.58 200.904Z" fill="currentColor" opacity="20%"/>
<path d="M92.2825 199.16C95.8183 201.812 93.8054 202.744 90.8502 205.488L88.7669 205.859C88.7669 205.859 83.4808 205.618 80.5638 207.806C78.0293 209.707 76.8 209.112 74.4441 207.597C70.7538 205.225 66.2673 205.205 62.1004 203.353C59.0808 202.011 57.212 199.485 54.4442 197.884C48.0548 194.189 42.2043 190.803 37.1005 185.462C32.8393 181.003 29.6022 175.934 26.736 170.488C24.4252 166.098 22.7667 163.501 18.5329 160.697C15.6474 158.785 12.5497 157.21 9.835 155.046C6.14466 152.103 3.06777 148.376 -0.164959 144.967C-8.07774 136.624 -17.4936 129.185 -23.1076 118.978C-26.8654 112.146 -28.8783 105.166 -29.045 97.3635C-29.3132 84.812 -21.9228 72.4195 -16.2326 61.7387C-12.5508 54.8278 -8.78396 47.9238 -4.8264 41.1659C-2.90475 37.8845 -1.00187 34.5758 2.30899 32.5201C6.90472 29.6665 12.8317 27.4762 18.1943 26.7389C31.1027 24.964 46.633 30.1252 57.1785 37.6242C59.5525 39.3124 59.4441 40.7291 59.4441 43.3013C59.4441 47.4131 57.7147 50.9107 56.5275 54.8116C54.8345 60.3743 53.8414 65.5421 49.8348 69.9939C47.7588 72.3006 43.3821 70.6197 41.163 72.8389C39.329 74.6729 41.163 79.4142 41.163 82.0251C41.163 90.8511 40.2167 98.0571 48.3222 102.581C54.8558 106.228 43.1261 107.494 43.038 112.429C42.9912 115.048 51.9963 117.459 53.9233 118.874C56.7687 120.963 55.6201 127.983 57.971 130.632C61.6022 134.724 68.0247 132.946 73.4545 134.473C75.1567 134.951 76.6373 135.955 78.168 136.816C79.7202 137.69 78.8094 139.198 78.4545 140.566C77.1236 145.7 81.5768 146.36 85.2253 147.728C87.6991 148.656 90.0851 149.44 92.6211 150.176C93.9588 150.564 95.0641 151.291 95.4335 152.728C95.8338 154.284 95.5377 156.315 95.5377 157.91C95.5377 160.966 97.0055 165.109 95.6419 167.988C94.9744 169.397 93.9557 170.683 93.194 172.207C92.3033 173.988 91.6859 175.928 91.8919 177.936C92.0644 179.618 93.1419 181.345 93.1419 182.988C93.1419 185.697 89.5641 187.166 88.7669 189.785C87.5338 193.837 90.9911 192.887 93.0898 194.811C93.9939 195.64 90.3263 197.693 92.2825 199.16Z" fill="currentColor" opacity="20%"/>
</g>
<mask id="path-5-inside-1_44_21" fill="white">
<path fill-rule="evenodd" clip-rule="evenodd" d="M127.21 164.799C161.618 154.196 186.624 122.149 186.624 84.2611C186.624 37.725 148.899 0 102.363 0C55.8272 0 18.1022 37.725 18.1022 84.2611C18.1022 122.149 43.1085 154.196 77.5171 164.799V216.918H127.21V164.799Z"/>
</mask>
<path d="M127.21 164.799L126.032 160.976L123.21 161.846V164.799H127.21ZM77.5171 164.799H81.5171V161.846L78.695 160.976L77.5171 164.799ZM77.5171 216.918H73.5171V220.918H77.5171V216.918ZM127.21 216.918V220.918H131.21V216.918H127.21ZM182.624 84.2611C182.624 120.344 158.81 150.876 126.032 160.976L128.387 168.622C164.426 157.517 190.624 123.954 190.624 84.2611H182.624ZM102.363 4C146.69 4 182.624 39.9341 182.624 84.2611H190.624C190.624 35.5158 151.109 -4 102.363 -4V4ZM22.1022 84.2611C22.1022 39.9341 58.0363 4 102.363 4V-4C53.6181 -4 14.1022 35.5158 14.1022 84.2611H22.1022ZM78.695 160.976C45.9165 150.876 22.1022 120.344 22.1022 84.2611H14.1022C14.1022 123.954 40.3005 157.517 76.3392 168.622L78.695 160.976ZM81.5171 216.918V164.799H73.5171V216.918H81.5171ZM127.21 212.918H77.5171V220.918H127.21V212.918ZM123.21 164.799V216.918H131.21V164.799H123.21Z" fill="currentColor" mask="url(#path-5-inside-1_44_21)"/>
<mask id="mask1_44_21" style="mask-type:alpha" maskUnits="userSpaceOnUse" x="0" y="204" width="205" height="58">
<path fill-rule="evenodd" clip-rule="evenodd" d="M2 240.816V222.047C2 213.211 9.16345 206.047 18 206.047H186.441C195.277 206.047 202.441 213.211 202.441 222.047V240.195C202.468 240.53 202.463 240.869 202.422 241.206C202.388 241.553 202.31 241.888 202.193 242.204C201.889 243.087 201.316 243.912 200.435 244.568L188.674 253.332C183.495 257.191 177.208 259.276 170.749 259.276H32.4009C25.2578 259.276 18.3491 256.727 12.9175 252.088L3.87007 244.361C3.61074 244.139 3.38194 243.903 3.18243 243.655C2.45219 242.93 2 241.926 2 240.816Z" fill="white"/>
<path d="M202.441 240.195H200.441V240.276L200.447 240.358L202.441 240.195ZM202.422 241.206L200.436 240.966L200.434 240.99L200.431 241.013L202.422 241.206ZM202.193 242.204L200.318 241.51L200.31 241.531L200.302 241.553L202.193 242.204ZM200.435 244.568L201.63 246.172L201.63 246.172L200.435 244.568ZM188.674 253.332L187.479 251.728L188.674 253.332ZM12.9175 252.088L11.6186 253.609L12.9175 252.088ZM3.87007 244.361L2.57117 245.881H2.57117L3.87007 244.361ZM3.18243 243.655L4.74054 242.401L4.67052 242.314L4.59125 242.235L3.18243 243.655ZM0 222.047V240.816H4V222.047H0ZM18 204.047C8.05887 204.047 0 212.106 0 222.047H4C4 214.315 10.268 208.047 18 208.047V204.047ZM186.441 204.047H18V208.047H186.441V204.047ZM204.441 222.047C204.441 212.106 196.382 204.047 186.441 204.047V208.047C194.173 208.047 200.441 214.315 200.441 222.047H204.441ZM204.441 240.195V222.047H200.441V240.195H204.441ZM204.408 241.445C204.465 240.972 204.472 240.498 204.434 240.032L200.447 240.358C200.464 240.562 200.46 240.766 200.436 240.966L204.408 241.445ZM204.069 242.898C204.245 242.423 204.362 241.92 204.413 241.398L200.431 241.013C200.414 241.187 200.375 241.353 200.318 241.51L204.069 242.898ZM201.63 246.172C202.833 245.276 203.649 244.119 204.084 242.855L200.302 241.553C200.129 242.055 199.799 242.548 199.24 242.964L201.63 246.172ZM189.869 254.936L201.63 246.172L199.24 242.964L187.479 251.728L189.869 254.936ZM170.749 261.276C177.639 261.276 184.344 259.052 189.869 254.936L187.479 251.728C182.645 255.33 176.777 257.276 170.749 257.276V261.276ZM32.4009 261.276H170.749V257.276H32.4009V261.276ZM11.6186 253.609C17.4123 258.557 24.7816 261.276 32.4009 261.276V257.276C25.734 257.276 19.2859 254.897 14.2164 250.567L11.6186 253.609ZM2.57117 245.881L11.6186 253.609L14.2164 250.567L5.16897 242.84L2.57117 245.881ZM1.62432 244.909C1.90301 245.255 2.21887 245.581 2.57117 245.881L5.16897 242.84C5.00261 242.698 4.86087 242.55 4.74054 242.401L1.62432 244.909ZM0 240.816C0 242.48 0.680516 243.99 1.7736 245.074L4.59125 242.235C4.22387 241.871 4 241.371 4 240.816H0Z" fill="currentColor"/>
</mask>
<g mask="url(#mask1_44_21)">
<rect x="-35.0543" y="157.28" width="291.627" height="147.562" fill="white"/>
<path d="M35.6562 210.261C38.3288 205.198 30.4276 204.381 27.7125 202.695L26.907 202C26.5198 201.734 25.7059 201.507 25.3569 201.936C24.9297 202.462 24.9333 201.47 24.8864 201.201C24.6645 199.931 24.5328 198.604 23.4299 197.759C22.9497 197.391 22.6983 197.002 22.0308 197.037C20.5211 197.117 18.9776 197.541 17.4888 197.794C12.9337 198.567 8.2854 198.983 3.86103 200.379C1.77894 201.037 0.116908 201.892 -1.35711 203.465C-5.2309 207.598 -7.10189 212.435 -8.77236 217.736C-9.32425 219.487 -9.65775 221.316 -10.4173 223.002C-10.9934 224.279 -11.8329 225.307 -12.736 226.37C-13.7702 227.586 -14.4305 228.729 -13.8237 230.312C-12.5099 233.739 -9.92233 236.486 -7.16444 238.845C-5.86892 239.954 -4.57697 241.233 -3.05199 242.046C-1.20515 243.032 0.928272 243.202 2.98999 243.35C5.2468 243.512 7.88066 243.944 10.1498 243.548C13.7754 242.914 17.5122 242.503 21.0819 241.628C23.099 241.134 25.1197 240.631 27.129 240.079C27.9568 239.852 29.2896 239.732 29.9947 239.244C31.0901 238.486 32.1127 237.624 33.2108 236.88C35.2703 235.487 37.8563 233.545 40.4573 233.497C41.6713 233.474 42.7904 233.655 43.9738 233.885C44.9233 234.07 47.5102 234.764 48.2184 233.71C48.8565 232.76 47.3934 231.955 46.7218 231.724C46.0433 231.49 45.5569 231.013 44.8498 230.797C43.9205 230.513 42.9386 230.476 42.0089 230.197C40.4796 229.739 39.0485 229.441 37.4344 229.409C34.6067 229.352 31.8025 229.056 28.9773 228.964C27.1642 228.904 25.2786 228.717 23.476 229.015C21.6952 229.309 19.7039 229.967 17.8916 229.786C16.1908 229.616 17.23 227.753 17.5057 226.816C18.3564 223.925 19.5986 221.235 22.4665 219.866C23.6707 219.291 24.5351 218.455 25.4211 217.473C25.5403 217.341 25.5156 217.014 25.6787 216.936C25.9027 216.829 26.106 216.729 26.2968 216.559C26.8272 216.084 27.1136 215.569 27.6161 215.083C27.8952 214.814 27.9563 214.454 28.175 214.15C28.4941 213.706 29.1212 213.316 29.6005 213.065C31.6229 212.005 34.4433 212.558 35.6562 210.261Z" fill="currentColor" opacity="20%"/>
<path d="M161.805 221.038C157.356 216.85 164.895 213.209 166.986 210.532L167.536 209.54C167.826 209.132 168.551 208.612 169.05 208.923C169.66 209.305 169.304 208.299 169.255 208.01C169.023 206.642 168.681 205.248 169.473 203.998C169.818 203.454 169.929 202.969 170.603 202.768C172.128 202.312 173.808 202.192 175.373 201.919C180.162 201.083 184.916 199.851 189.797 199.694C192.094 199.62 194.045 199.896 196.065 200.968C201.374 203.785 204.949 208.029 208.49 212.814C209.66 214.395 210.641 216.133 211.993 217.573C213.019 218.665 214.216 219.41 215.489 220.167C216.947 221.034 218.008 221.959 217.969 223.781C217.887 227.727 216.3 231.435 214.406 234.812C213.517 236.398 212.692 238.156 211.47 239.524C209.99 241.182 207.937 242.113 205.946 242.997C203.768 243.965 201.312 245.341 198.922 245.746C195.104 246.393 191.255 247.306 187.406 247.688C185.232 247.904 183.05 248.113 180.863 248.268C179.962 248.332 178.599 248.685 177.726 248.44C176.371 248.06 175.051 247.549 173.698 247.186C171.162 246.504 167.909 245.454 165.314 246.33C164.103 246.739 163.058 247.321 161.967 247.976C161.092 248.501 158.776 250.127 157.699 249.309C156.729 248.571 157.892 247.234 158.476 246.76C159.065 246.281 159.377 245.624 160.001 245.153C160.821 244.535 161.781 244.147 162.603 243.534C163.955 242.524 165.267 241.712 166.855 241.105C169.637 240.041 172.311 238.743 175.077 237.644C176.853 236.938 178.654 236.077 180.547 235.738C182.416 235.403 184.623 235.362 186.355 234.534C187.98 233.756 186.287 232.235 185.681 231.382C183.809 228.75 181.621 226.462 178.292 226.093C176.895 225.938 175.741 225.397 174.514 224.716C174.348 224.624 174.256 224.283 174.067 224.262C173.807 224.233 173.57 224.204 173.32 224.099C172.626 223.807 172.159 223.385 171.488 223.071C171.116 222.897 170.927 222.553 170.602 222.323C170.128 221.986 169.368 221.813 168.804 221.729C166.423 221.373 163.825 222.938 161.805 221.038Z" fill="currentColor" opacity="20%"/>
<rect x="2.38275" y="243.569" width="200.075" height="32.4381" fill="currentColor" opacity="20%"/>
</g>
<path d="M202.441 240.195H200.441V240.276L200.447 240.358L202.441 240.195ZM202.422 241.206L200.436 240.966L200.434 240.99L200.431 241.013L202.422 241.206ZM202.193 242.204L200.318 241.51L200.31 241.531L200.302 241.553L202.193 242.204ZM200.435 244.568L201.63 246.172L201.63 246.172L200.435 244.568ZM188.674 253.332L187.479 251.728L188.674 253.332ZM12.9175 252.088L11.6186 253.609L12.9175 252.088ZM3.87007 244.361L2.57117 245.881H2.57117L3.87007 244.361ZM3.18243 243.655L4.74054 242.401L4.67052 242.314L4.59125 242.235L3.18243 243.655ZM0 222.047V240.816H4V222.047H0ZM18 204.047C8.05887 204.047 0 212.106 0 222.047H4C4 214.315 10.268 208.047 18 208.047V204.047ZM186.441 204.047H18V208.047H186.441V204.047ZM204.441 222.047C204.441 212.106 196.382 204.047 186.441 204.047V208.047C194.173 208.047 200.441 214.315 200.441 222.047H204.441ZM204.441 240.195V222.047H200.441V240.195H204.441ZM204.408 241.445C204.465 240.972 204.472 240.498 204.434 240.032L200.447 240.358C200.464 240.562 200.46 240.766 200.436 240.966L204.408 241.445ZM204.069 242.898C204.245 242.423 204.362 241.92 204.413 241.398L200.431 241.013C200.414 241.187 200.375 241.353 200.318 241.51L204.069 242.898ZM201.63 246.172C202.833 245.276 203.649 244.119 204.084 242.855L200.302 241.553C200.129 242.055 199.799 242.548 199.24 242.964L201.63 246.172ZM189.869 254.936L201.63 246.172L199.24 242.964L187.479 251.728L189.869 254.936ZM170.749 261.276C177.639 261.276 184.344 259.052 189.869 254.936L187.479 251.728C182.645 255.33 176.777 257.276 170.749 257.276V261.276ZM32.4009 261.276H170.749V257.276H32.4009V261.276ZM11.6186 253.609C17.4123 258.557 24.7816 261.276 32.4009 261.276V257.276C25.734 257.276 19.2859 254.897 14.2164 250.567L11.6186 253.609ZM2.57117 245.881L11.6186 253.609L14.2164 250.567L5.16897 242.84L2.57117 245.881ZM1.62432 244.909C1.90301 245.255 2.21887 245.581 2.57117 245.881L5.16897 242.84C5.00261 242.698 4.86087 242.55 4.74054 242.401L1.62432 244.909ZM0 240.816C0 242.48 0.680516 243.99 1.7736 245.074L4.59125 242.235C4.22387 241.871 4 241.371 4 240.816H0Z" fill="currentColor"/>
<path d="M125.805 163.427C125.805 158.135 117.313 155.669 113.067 155.098" stroke="currentColor" stroke-width="4" stroke-linecap="round" stroke-linejoin="round"/>
<path d="M78.7462 163.427C78.7462 158.135 87.2387 155.669 91.485 155.098" stroke="currentColor" stroke-width="4" stroke-linecap="round" stroke-linejoin="round"/>
<path d="M15.2589 242.426L189.312 242.426" stroke="currentColor" stroke-width="4" stroke-linecap="round" stroke-linejoin="round"/>
<path d="M24.6471 249.244C83.3815 246.244 116.415 246.281 175.522 249.244V261.605H24.6471V249.244Z" fill="white"/>
<ellipse cx="100.072" cy="262.276" rx="75.4499" ry="6.17413" fill="currentColor" stroke="currentColor" stroke-width="4"/>
<path d="M24.6221 262.103V250.101" stroke="currentColor" stroke-width="4" stroke-linecap="round" stroke-linejoin="round"/>
<path d="M175.522 262.601V250.599" stroke="currentColor" stroke-width="4" stroke-linecap="round" stroke-linejoin="round"/>
<path d="M24.9598 253.676C85.1609 249.893 118.03 250.156 175.522 253.676V262.601H24.9598V253.676Z" fill="currentColor" />
</g>
<defs>
<clipPath id="clip0_44_21">
<rect width="205" height="271" fill="white"/>
</clipPath>
</defs>
</svg>
